<svg width="18" height="18" viewBox="0 0 512 512" fill="none" xmlns="http://www.w3.org/2000/svg">
<path id="Target" fill-rule="evenodd" clip-rule="evenodd" d="M256 512C397.385 512 512 397.385 512 256C512 114.615 397.385 0 256 0C114.615 0 0 114.615 0 256C0 397.385 114.615 512 256 512ZM462 256C462 369.771 369.771 462 256 462C142.229 462 50 369.771 50 256C50 142.229 142.229 50 256 50C369.771 50 462 142.229 462 256ZM417 256C417 342.156 347.156 412 261 412C174.844 412 105 342.156 105 256C105 169.844 174.844 100 261 100C347.156 100 417 169.844 417 256Z" fill="#FF0000" fill-opacity="0.65"/>
</svg>
