<?xml version="1.0" encoding="utf-8"?>
<!-- Generator: Adobe Illustrator 24.0.2, SVG Export Plug-In . SVG Version: 6.00 Build 0)  -->
<svg version="1.1" id="Layer_1" xmlns="http://www.w3.org/2000/svg" xmlns:xlink="http://www.w3.org/1999/xlink" x="0px" y="0px"
	 viewBox="0 0 842 178" style="enable-background:new 0 0 842 178;" xml:space="preserve">
<style type="text/css">
	.st0{fill:#FFFFFF;}
</style>
<g>
	<path class="st0" d="M139.49,150.3c2.26-5.81,3.38-12.28,3.38-19.39c0-6.42-1.3-12.49-3.9-18.22c-2.6-5.73-6.07-10.76-10.41-15.09
		c-4.34-4.34-9.41-7.77-15.23-10.28c-5.81-2.51-11.93-3.77-18.35-3.77l-47.36,0.52c-6.77-1.39-11.67-3.86-14.7-7.42
		c-3.04-3.55-4.56-8.02-4.56-13.4c0-5.9,1.65-10.84,4.94-14.83s8.41-5.99,15.36-5.99h91.6V15.88H42.42c-5.9,0-11.41,1.13-16.53,3.39
		c-5.12,2.26-9.58,5.46-13.4,9.62c-3.82,4.17-6.85,9.15-9.11,14.97S0,56.13,0,63.25c0,6.42,1.26,12.49,3.77,18.22
		c2.51,5.72,5.94,10.76,10.28,15.09c4.34,4.34,9.37,7.76,15.09,10.28c5.73,2.51,11.89,3.77,18.48,3.77l47.36-0.26
		c6.77,1.39,11.67,3.86,14.7,7.42c3.04,3.56,4.55,7.94,4.55,13.15c0,6.07-1.65,11.06-4.94,14.96c-3.3,3.9-8.5,5.86-15.61,5.86H2.6
		v26.54h97.59c5.72,0,11.19-1.13,16.39-3.38s9.76-5.46,13.66-9.63C134.15,161.1,137.23,156.11,139.49,150.3z"/>
	<path class="st0" d="M201.15,114.51h41.9h3.12h27.58c5.73,0,11.19-1.34,16.4-4.03c5.2-2.69,9.71-6.25,13.53-10.67
		c3.82-4.42,6.85-9.54,9.11-15.35s3.38-11.93,3.38-18.34c0-7.12-1.17-13.75-3.51-19.91c-2.34-6.16-5.47-11.49-9.37-16
		c-3.9-4.51-8.46-8.03-13.66-10.54c-5.2-2.51-10.67-3.77-16.39-3.77H173.3v162.39h27.84V114.51z M270.11,42.43
		c2.6,0,4.99,0.74,7.16,2.21c2.17,1.48,3.99,3.38,5.46,5.73c1.47,2.34,2.6,4.85,3.38,7.54c0.78,2.69,1.17,5.34,1.17,7.94
		c0,2.43-0.3,4.94-0.91,7.55c-0.61,2.6-1.6,4.99-2.99,7.16c-1.39,2.17-3.12,3.94-5.2,5.34c-2.08,1.39-4.51,2.08-7.29,2.08h-24.72
		h-3.12h-41.9V42.43H270.11z"/>
	<polygon class="st0" points="396.05,0.01 307.57,178.27 352.33,151.47 396.05,62.46 440.2,151.37 485.83,178.27 	"/>
	<path class="st0" d="M616.97,113.73c4.68-1.04,9.11-3.08,13.27-6.11c4.16-3.03,7.76-6.68,10.8-10.93
		c3.04-4.25,5.42-9.03,7.15-14.32c1.74-5.29,2.6-10.72,2.6-16.26c0-7.12-1.17-13.75-3.51-19.91c-2.34-6.16-5.47-11.49-9.37-16
		c-3.9-4.51-8.46-8.03-13.66-10.54c-5.2-2.51-10.67-3.77-16.39-3.77h-99.93v162.39h27.84v-63.76h51.2l32.34,63.76h30.45
		L616.97,113.73z M535.78,87.97V42.43h68.96c2.6,0,4.99,0.74,7.16,2.21c2.17,1.48,3.99,3.38,5.46,5.73c1.47,2.34,2.6,4.85,3.38,7.54
		s1.17,5.34,1.17,7.94c0,2.43-0.3,4.94-0.91,7.55c-0.61,2.6-1.6,4.99-2.99,7.16c-1.39,2.17-3.12,3.94-5.2,5.34
		c-2.08,1.39-4.51,2.08-7.29,2.08h-32.01H535.78z"/>
	<polygon class="st0" points="802.24,97.86 842.06,15.88 810.83,15.88 778.24,82.55 709.33,82.55 709.33,15.88 681.23,15.88 
		681.23,178.27 709.33,178.27 709.33,111.13 760.6,111.13 777.41,111.13 811.09,178.27 842.32,178.27 	"/>
	<path class="st0" d="M406.79,115.42c0-5.57-4.52-10.09-10.09-10.09s-10.09,4.52-10.09,10.09c0,5.57,4.52,10.09,10.09,10.09
		S406.79,120.99,406.79,115.42z"/>
</g>
</svg>
