<?xml version="1.0" encoding="utf-8"?>
<!-- Generator: Adobe Illustrator 24.0.0, SVG Export Plug-In . SVG Version: 6.00 Build 0)  -->
<svg version="1.1" id="Layer_1" xmlns="http://www.w3.org/2000/svg" xmlns:xlink="http://www.w3.org/1999/xlink" x="0px" y="0px"
	 viewBox="0 0 716 152" style="enable-background:new 0 0 716 152;" xml:space="preserve">
<style type="text/css">
	.st0{fill:#F3EFEE;}
</style>
<g>
	<path class="st0" d="M118.53,121.03c1.91-4.93,2.87-10.42,2.87-16.46c0-5.45-1.11-10.61-3.31-15.46
		c-2.21-4.86-5.15-9.13-8.84-12.81c-3.68-3.69-7.99-6.59-12.92-8.73c-4.93-2.13-10.12-3.2-15.57-3.2l-40.2,0.44
		c-5.74-1.18-9.9-3.28-12.48-6.3c-2.58-3.02-3.87-6.81-3.87-11.37c0-5.01,1.4-9.2,4.2-12.59c2.8-3.39,7.14-5.08,13.03-5.08h77.76
		V6.93H36.13c-5.01,0-9.68,0.96-14.03,2.88c-4.34,1.91-8.14,4.64-11.38,8.17C7.49,21.51,4.91,25.75,3,30.68S0.12,41.1,0.12,47.14
		c0,5.45,1.07,10.6,3.2,15.46c2.13,4.86,5.04,9.13,8.72,12.81c3.68,3.68,7.95,6.59,12.81,8.73c4.86,2.13,10.09,3.2,15.68,3.2
		l40.2-0.22c5.74,1.18,9.9,3.28,12.48,6.3c2.58,3.02,3.86,6.74,3.86,11.16c0,5.15-1.4,9.39-4.2,12.7c-2.8,3.31-7.21,4.97-13.25,4.97
		H2.33v22.53h82.84c4.86,0,9.5-0.96,13.92-2.87c4.42-1.91,8.28-4.64,11.6-8.17C114,130.2,116.62,125.96,118.53,121.03z"/>
	<path class="st0" d="M170.87,90.66h35.56h2.65h23.41c4.86,0,9.5-1.14,13.92-3.42c4.42-2.28,8.25-5.3,11.49-9.06
		c3.24-3.75,5.82-8.1,7.73-13.03s2.87-10.12,2.87-15.57c0-6.04-0.99-11.67-2.98-16.9c-1.99-5.23-4.64-9.76-7.95-13.59
		c-3.31-3.83-7.18-6.81-11.6-8.95c-4.42-2.13-9.06-3.2-13.92-3.2h-84.83v137.85h23.64V90.66z M229.41,29.46
		c2.21,0,4.23,0.63,6.08,1.88c1.84,1.25,3.39,2.87,4.64,4.86c1.25,1.99,2.21,4.12,2.87,6.4c0.66,2.28,1,4.53,1,6.74
		c0,2.06-0.26,4.2-0.78,6.41c-0.51,2.21-1.36,4.23-2.54,6.08c-1.18,1.84-2.65,3.35-4.42,4.53c-1.77,1.18-3.83,1.77-6.19,1.77h-20.99
		h-2.65h-35.56V29.46H229.41z"/>
	<polygon class="st0" points="336.31,0.46 261.21,151.78 299.2,129.02 336.31,53.47 373.79,128.94 412.53,151.78 	"/>
	<path class="st0" d="M523.85,89.99c3.97-0.88,7.73-2.61,11.27-5.19c3.53-2.58,6.59-5.67,9.17-9.28c2.58-3.61,4.6-7.66,6.07-12.15
		c1.47-4.49,2.21-9.1,2.21-13.81c0-6.04-0.99-11.67-2.98-16.9c-1.99-5.23-4.64-9.76-7.95-13.59c-3.31-3.83-7.18-6.81-11.6-8.95
		c-4.42-2.13-9.06-3.2-13.92-3.2h-84.83v137.85h23.64V90.66h43.46l27.45,54.12h25.85L523.85,89.99z M454.92,68.12V29.46h58.54
		c2.21,0,4.23,0.63,6.08,1.88c1.84,1.25,3.39,2.87,4.64,4.86c1.25,1.99,2.21,4.12,2.87,6.4c0.66,2.28,1,4.53,1,6.74
		c0,2.06-0.26,4.2-0.78,6.41c-0.51,2.21-1.36,4.23-2.54,6.08c-1.18,1.84-2.65,3.35-4.42,4.53c-1.77,1.18-3.83,1.77-6.19,1.77h-27.17
		H454.92z"/>
	<polygon class="st0" points="681.11,76.52 714.91,6.93 688.4,6.93 660.74,63.52 602.25,63.52 602.25,6.93 578.39,6.93 
		578.39,144.78 602.25,144.78 602.25,87.78 645.77,87.78 660.03,87.78 688.62,144.78 715.13,144.78 	"/>
	<path class="st0" d="M345.43,98.42c0-4.73-3.84-8.57-8.57-8.57s-8.57,3.84-8.57,8.57c0,4.73,3.84,8.57,8.57,8.57
		S345.43,103.15,345.43,98.42z"/>
</g>
</svg>
